<mxfile host="e06309b8-7e85-4636-9b15-ee3cfce7aa85" modified="2020-08-11T08:58:06.454Z" agent="5.0 (Macintosh; Intel Mac OS X 10_15_5) AppleWebKit/537.36 (KHTML, like Gecko) Code/1.47.3 Chrome/78.0.3904.130 Electron/7.3.2 Safari/537.36" etag="j0_Es48VyMwaEHvP35Ht" version="13.1.3">
    <diagram id="6hGFLwfOUW9BJ-s0fimq" name="Page-1">
        <mxGraphModel dx="1297" dy="833" grid="1" gridSize="10" guides="1" tooltips="1" connect="1" arrows="1" fold="1" page="1" pageScale="1" pageWidth="827" pageHeight="1169" math="0" shadow="0">
            <root>
                <mxCell id="0"/>
                <mxCell id="1" parent="0"/>
                <mxCell id="2" value="" style="rounded=0;whiteSpace=wrap;html=1;fontSize=14;" parent="1" vertex="1">
                    <mxGeometry x="120" y="380" width="1250" height="830" as="geometry"/>
                </mxCell>
                <mxCell id="119" value="" style="outlineConnect=0;dashed=0;verticalLabelPosition=bottom;verticalAlign=top;align=center;html=1;shape=mxgraph.aws3.vpc;fillColor=#F58534;gradientColor=none;fontSize=14;" vertex="1" parent="1">
                    <mxGeometry x="121" y="380" width="29" height="36" as="geometry"/>
                </mxCell>
                <mxCell id="12" value="" style="group;fontSize=14;" parent="1" vertex="1" connectable="0">
                    <mxGeometry x="320" y="580" width="1160" height="859.5" as="geometry"/>
                </mxCell>
                <mxCell id="24" value="" style="group;fontSize=14;" parent="12" vertex="1" connectable="0">
                    <mxGeometry y="490" width="350.32000000000005" height="358.7488557806913" as="geometry"/>
                </mxCell>
                <mxCell id="23" value="" style="group;fontSize=14;" parent="12" vertex="1" connectable="0">
                    <mxGeometry x="21.666666666666686" y="27.890345649582827" width="344.9008333333333" height="148.74851013110847" as="geometry"/>
                </mxCell>
                <mxCell id="100" value="Public subnet: 10.1.1.0/24" style="points=[[0,0],[0.25,0],[0.5,0],[0.75,0],[1,0],[1,0.25],[1,0.5],[1,0.75],[1,1],[0.75,1],[0.5,1],[0.25,1],[0,1],[0,0.75],[0,0.5],[0,0.25]];outlineConnect=0;gradientColor=none;html=1;whiteSpace=wrap;fontSize=14;fontStyle=0;shape=mxgraph.aws4.group;grIcon=mxgraph.aws4.group_security_group;grStroke=0;strokeColor=#248814;fillColor=#E9F3E6;verticalAlign=top;align=left;spacingLeft=30;fontColor=#248814;dashed=0;" vertex="1" parent="12">
                    <mxGeometry x="30" y="37.26" width="270" height="130" as="geometry"/>
                </mxCell>
                <mxCell id="28" value="" style="outlineConnect=0;dashed=0;verticalLabelPosition=bottom;verticalAlign=top;align=center;html=1;shape=mxgraph.aws3.vpc_nat_gateway;fillColor=#F58536;gradientColor=none;fontSize=14;" parent="12" vertex="1">
                    <mxGeometry x="28.997785657998474" y="99.9978188319428" width="51.0895390070922" height="46.4839094159714" as="geometry"/>
                </mxCell>
                <mxCell id="86" value="" style="group;fontSize=14;" vertex="1" connectable="0" parent="12">
                    <mxGeometry x="-51" y="90" width="80" height="40.00000000000001" as="geometry"/>
                </mxCell>
                <mxCell id="143" value="" style="group;fontSize=14;" vertex="1" connectable="0" parent="86">
                    <mxGeometry x="-4" y="4.000000000000002" width="76.5" height="21.000000000000014" as="geometry"/>
                </mxCell>
                <mxCell id="141" value="" style="group;fontSize=14;" vertex="1" connectable="0" parent="12">
                    <mxGeometry x="30" y="255" width="270" height="130" as="geometry"/>
                </mxCell>
                <mxCell id="129" value="" style="group;fontSize=14;" vertex="1" connectable="0" parent="141">
                    <mxGeometry width="270" height="130" as="geometry"/>
                </mxCell>
                <mxCell id="105" value="Public subnet: 10.1.2.0/24" style="points=[[0,0],[0.25,0],[0.5,0],[0.75,0],[1,0],[1,0.25],[1,0.5],[1,0.75],[1,1],[0.75,1],[0.5,1],[0.25,1],[0,1],[0,0.75],[0,0.5],[0,0.25]];outlineConnect=0;gradientColor=none;html=1;whiteSpace=wrap;fontSize=14;fontStyle=0;shape=mxgraph.aws4.group;grIcon=mxgraph.aws4.group_security_group;grStroke=0;strokeColor=#248814;fillColor=#E9F3E6;verticalAlign=top;align=left;spacingLeft=30;fontColor=#248814;dashed=0;" vertex="1" parent="129">
                    <mxGeometry width="270" height="129.9996543513361" as="geometry"/>
                </mxCell>
                <mxCell id="80" value="" style="outlineConnect=0;dashed=0;verticalLabelPosition=bottom;verticalAlign=top;align=center;html=1;shape=mxgraph.aws3.vpc_nat_gateway;fillColor=#F58534;gradientColor=none;fontSize=14;" vertex="1" parent="129">
                    <mxGeometry x="0.0013634310001111594" y="50.000212706870094" width="49.815" height="51.559862910422225" as="geometry"/>
                </mxCell>
                <mxCell id="22" value="" style="outlineConnect=0;dashed=0;verticalLabelPosition=bottom;verticalAlign=top;align=center;html=1;shape=mxgraph.aws3.internet_gateway;fillColor=#F58534;gradientColor=none;fontSize=14;" parent="1" vertex="1">
                    <mxGeometry x="120" y="758.75" width="54.48873327946854" height="50" as="geometry"/>
                </mxCell>
                <mxCell id="64" value="" style="edgeStyle=orthogonalEdgeStyle;rounded=0;orthogonalLoop=1;jettySize=auto;html=1;" edge="1" parent="1" target="63">
                    <mxGeometry relative="1" as="geometry">
                        <mxPoint x="308" y="1182" as="sourcePoint"/>
                    </mxGeometry>
                </mxCell>
                <mxCell id="69" value="" style="group;fontSize=14;" vertex="1" connectable="0" parent="1">
                    <mxGeometry x="686.5675000000001" y="682.2646007151371" as="geometry"/>
                </mxCell>
                <mxCell id="72" style="rounded=0;orthogonalLoop=1;jettySize=auto;html=1;exitX=0.463;exitY=0.014;exitDx=0;exitDy=0;startArrow=ERmandOne;startFill=0;endArrow=ERmandOne;endFill=0;dashed=1;fillColor=#60a917;strokeColor=#2D7600;exitPerimeter=0;fontSize=14;" edge="1" parent="1" source="68" target="105">
                    <mxGeometry relative="1" as="geometry">
                        <mxPoint x="485" y="960" as="targetPoint"/>
                    </mxGeometry>
                </mxCell>
                <mxCell id="73" value="ass: public_b" style="edgeLabel;html=1;align=center;verticalAlign=middle;resizable=0;points=[];fontSize=14;" vertex="1" connectable="0" parent="72">
                    <mxGeometry x="0.3355" y="2" relative="1" as="geometry">
                        <mxPoint x="3.3999999999999986" y="66.87" as="offset"/>
                    </mxGeometry>
                </mxCell>
                <mxCell id="74" style="edgeStyle=orthogonalEdgeStyle;rounded=0;orthogonalLoop=1;jettySize=auto;html=1;entryX=0.5;entryY=0;entryDx=0;entryDy=0;entryPerimeter=0;startArrow=classic;startFill=0;endArrow=classic;endFill=0;fillColor=#60a917;strokeColor=#2D7600;fontSize=14;" edge="1" parent="1" source="19" target="22">
                    <mxGeometry relative="1" as="geometry">
                        <Array as="points">
                            <mxPoint x="147" y="450"/>
                        </Array>
                    </mxGeometry>
                </mxCell>
                <mxCell id="121" value="route: public_internet_acess_a" style="edgeLabel;html=1;align=center;verticalAlign=middle;resizable=0;points=[];fontSize=14;" vertex="1" connectable="0" parent="74">
                    <mxGeometry x="-0.2804" relative="1" as="geometry">
                        <mxPoint x="57.25" as="offset"/>
                    </mxGeometry>
                </mxCell>
                <mxCell id="78" style="edgeStyle=orthogonalEdgeStyle;rounded=0;orthogonalLoop=1;jettySize=auto;html=1;entryX=0.5;entryY=1;entryDx=0;entryDy=0;entryPerimeter=0;startArrow=classic;startFill=0;endArrow=classic;endFill=0;exitX=-0.023;exitY=0.625;exitDx=0;exitDy=0;exitPerimeter=0;fillColor=#60a917;strokeColor=#2D7600;fontSize=14;" edge="1" parent="1" source="67" target="22">
                    <mxGeometry relative="1" as="geometry">
                        <Array as="points">
                            <mxPoint x="147" y="1150"/>
                        </Array>
                    </mxGeometry>
                </mxCell>
                <mxCell id="120" value="route: public_internet_access_b" style="edgeLabel;html=1;align=center;verticalAlign=middle;resizable=0;points=[];fontSize=14;" vertex="1" connectable="0" parent="78">
                    <mxGeometry x="-0.3339" y="-2" relative="1" as="geometry">
                        <mxPoint x="42.82" y="2" as="offset"/>
                    </mxGeometry>
                </mxCell>
                <mxCell id="83" value="eip: public_a" style="text;html=1;align=center;verticalAlign=middle;resizable=0;points=[];autosize=1;fontSize=14;" vertex="1" parent="1">
                    <mxGeometry x="213" y="682.26" width="90" height="20" as="geometry"/>
                </mxCell>
                <mxCell id="3" value="VPC: 10.1.0.0/16" style="text;html=1;align=center;verticalAlign=middle;resizable=0;points=[];autosize=1;fontSize=14;" parent="1" vertex="1">
                    <mxGeometry x="145" y="384" width="120" height="20" as="geometry"/>
                </mxCell>
                <mxCell id="75" value="main" style="text;html=1;align=center;verticalAlign=middle;resizable=0;points=[];autosize=1;fontSize=14;" vertex="1" parent="1">
                    <mxGeometry x="122.24000000000001" y="788.75" width="50" height="20" as="geometry"/>
                </mxCell>
                <mxCell id="126" value="Private subnet: 10.1.10.0/24" style="points=[[0,0],[0.25,0],[0.5,0],[0.75,0],[1,0],[1,0.25],[1,0.5],[1,0.75],[1,1],[0.75,1],[0.5,1],[0.25,1],[0,1],[0,0.75],[0,0.5],[0,0.25]];outlineConnect=0;gradientColor=none;html=1;whiteSpace=wrap;fontSize=14;fontStyle=0;shape=mxgraph.aws4.group;grIcon=mxgraph.aws4.group_security_group;grStroke=0;strokeColor=#147EBA;fillColor=#E6F2F8;verticalAlign=top;align=left;spacingLeft=30;fontColor=#147EBA;dashed=0;" vertex="1" parent="1">
                    <mxGeometry x="940" y="627.26" width="270" height="130" as="geometry"/>
                </mxCell>
                <mxCell id="133" value="Private subnet: 10.1.11.0/24" style="points=[[0,0],[0.25,0],[0.5,0],[0.75,0],[1,0],[1,0.25],[1,0.5],[1,0.75],[1,1],[0.75,1],[0.5,1],[0.25,1],[0,1],[0,0.75],[0,0.5],[0,0.25]];outlineConnect=0;gradientColor=none;html=1;whiteSpace=wrap;fontSize=14;fontStyle=0;shape=mxgraph.aws4.group;grIcon=mxgraph.aws4.group_security_group;grStroke=0;strokeColor=#147EBA;fillColor=#E6F2F8;verticalAlign=top;align=left;spacingLeft=30;fontColor=#147EBA;dashed=0;" vertex="1" parent="1">
                    <mxGeometry x="940" y="828.78" width="270" height="130" as="geometry"/>
                </mxCell>
                <mxCell id="138" value="" style="group;fontSize=14;" vertex="1" connectable="0" parent="1">
                    <mxGeometry x="730" y="1100" width="119.56521739130449" height="80" as="geometry"/>
                </mxCell>
                <mxCell id="134" value="" style="shape=internalStorage;whiteSpace=wrap;html=1;backgroundOutline=1;fontSize=14;" vertex="1" parent="138">
                    <mxGeometry width="112.49999999999999" height="80" as="geometry"/>
                </mxCell>
                <mxCell id="135" value="table: private_b" style="text;html=1;align=center;verticalAlign=middle;resizable=0;points=[];autosize=1;fontSize=12;" vertex="1" parent="138">
                    <mxGeometry x="14.565217391304486" width="100" height="20" as="geometry"/>
                </mxCell>
                <mxCell id="136" value="" style="outlineConnect=0;dashed=0;verticalLabelPosition=bottom;verticalAlign=top;align=center;html=1;shape=mxgraph.aws3.route_table;fillColor=#F58536;gradientColor=none;fontSize=14;" vertex="1" parent="138">
                    <mxGeometry x="19.079999999999927" y="20" width="90.92" height="60" as="geometry"/>
                </mxCell>
                <mxCell id="139" value="" style="group;fontSize=14;" vertex="1" connectable="0" parent="1">
                    <mxGeometry x="730" y="410" width="119.56521739130449" height="80" as="geometry"/>
                </mxCell>
                <mxCell id="130" value="" style="shape=internalStorage;whiteSpace=wrap;html=1;backgroundOutline=1;fontSize=14;" vertex="1" parent="139">
                    <mxGeometry width="112.49999999999999" height="80" as="geometry"/>
                </mxCell>
                <mxCell id="131" value="table: private_a" style="text;html=1;align=center;verticalAlign=middle;resizable=0;points=[];autosize=1;fontSize=12;" vertex="1" parent="139">
                    <mxGeometry x="14.565217391304486" width="100" height="20" as="geometry"/>
                </mxCell>
                <mxCell id="132" value="" style="outlineConnect=0;dashed=0;verticalLabelPosition=bottom;verticalAlign=top;align=center;html=1;shape=mxgraph.aws3.route_table;fillColor=#F58536;gradientColor=none;fontSize=14;" vertex="1" parent="139">
                    <mxGeometry x="19.079999999999927" y="20" width="90.92" height="60" as="geometry"/>
                </mxCell>
                <mxCell id="140" value="" style="group;fontSize=14;" vertex="1" connectable="0" parent="1">
                    <mxGeometry x="421.75" y="410" width="119.56521739130437" height="80" as="geometry"/>
                </mxCell>
                <mxCell id="19" value="" style="shape=internalStorage;whiteSpace=wrap;html=1;backgroundOutline=1;fontSize=14;" parent="140" vertex="1">
                    <mxGeometry width="112.49999999999999" height="80" as="geometry"/>
                </mxCell>
                <mxCell id="35" value="table: public_a" style="text;html=1;align=center;verticalAlign=middle;resizable=0;points=[];autosize=1;fontSize=12;" parent="140" vertex="1">
                    <mxGeometry x="19.565217391304373" width="90" height="20" as="geometry"/>
                </mxCell>
                <mxCell id="123" value="" style="outlineConnect=0;dashed=0;verticalLabelPosition=bottom;verticalAlign=top;align=center;html=1;shape=mxgraph.aws3.route_table;fillColor=#F58536;gradientColor=none;fontSize=14;" vertex="1" parent="140">
                    <mxGeometry x="19.08000000000004" y="20" width="90.92" height="60" as="geometry"/>
                </mxCell>
                <mxCell id="42" style="rounded=0;orthogonalLoop=1;jettySize=auto;html=1;startArrow=ERmandOne;startFill=0;endArrow=ERmandOne;endFill=0;elbow=vertical;entryX=0.5;entryY=1;entryDx=0;entryDy=0;dashed=1;fillColor=#60a917;strokeColor=#2D7600;exitX=0.5;exitY=0;exitDx=0;exitDy=0;entryPerimeter=0;fontSize=14;" parent="1" source="100" target="123" edge="1">
                    <mxGeometry relative="1" as="geometry">
                        <mxPoint x="516" y="607" as="sourcePoint"/>
                    </mxGeometry>
                </mxCell>
                <mxCell id="43" value="ass: public_a" style="edgeLabel;html=1;align=center;verticalAlign=middle;resizable=0;points=[];fontSize=14;" parent="42" vertex="1" connectable="0">
                    <mxGeometry x="-0.0611" y="-2" relative="1" as="geometry">
                        <mxPoint x="-2.61" y="-47.28" as="offset"/>
                    </mxGeometry>
                </mxCell>
                <mxCell id="89" value="eip: public_b" style="text;html=1;align=center;verticalAlign=middle;resizable=0;points=[];autosize=1;fontSize=14;" vertex="1" parent="1">
                    <mxGeometry x="214.5" y="865.72" width="90" height="20" as="geometry"/>
                </mxCell>
                <mxCell id="88" value="" style="outlineConnect=0;dashed=0;verticalLabelPosition=bottom;verticalAlign=top;align=center;html=1;shape=mxgraph.aws3.elastic_ip;fillColor=#F58534;gradientColor=none;rotation=-180;fontSize=14;" vertex="1" parent="1">
                    <mxGeometry x="223.5" y="883.28" width="76.5" height="21" as="geometry"/>
                </mxCell>
                <mxCell id="82" value="" style="outlineConnect=0;dashed=0;verticalLabelPosition=bottom;verticalAlign=top;align=center;html=1;shape=mxgraph.aws3.elastic_ip;fillColor=#F58534;gradientColor=none;rotation=-180;fontSize=14;" vertex="1" parent="1">
                    <mxGeometry x="223" y="701.26" width="76.5" height="21" as="geometry"/>
                </mxCell>
                <mxCell id="151" value="" style="group;fontSize=14;" vertex="1" connectable="0" parent="1">
                    <mxGeometry x="423" y="1100" width="120.00106280193245" height="80" as="geometry"/>
                </mxCell>
                <mxCell id="67" value="" style="shape=internalStorage;whiteSpace=wrap;html=1;backgroundOutline=1;fontSize=14;" vertex="1" parent="151">
                    <mxGeometry width="110" height="80" as="geometry"/>
                </mxCell>
                <mxCell id="150" value="" style="group;fontSize=14;" vertex="1" connectable="0" parent="151">
                    <mxGeometry x="20.00106280193245" width="100" height="80" as="geometry"/>
                </mxCell>
                <mxCell id="68" value="table: public_b" style="text;html=1;align=center;verticalAlign=middle;resizable=0;points=[];autosize=1;fontSize=12;" vertex="1" parent="150">
                    <mxGeometry width="90" height="20" as="geometry"/>
                </mxCell>
                <mxCell id="122" value="" style="outlineConnect=0;dashed=0;verticalLabelPosition=bottom;verticalAlign=top;align=center;html=1;shape=mxgraph.aws3.route_table;fillColor=#F58536;gradientColor=none;fontSize=14;" vertex="1" parent="150">
                    <mxGeometry x="2.4989371980675514" y="20" width="85" height="60" as="geometry"/>
                </mxCell>
                <mxCell id="157" style="rounded=0;orthogonalLoop=1;jettySize=auto;html=1;exitX=1;exitY=0.5;exitDx=0;exitDy=0;dashed=1;startArrow=ERmandOne;startFill=0;endArrow=ERmandOne;endFill=0;fillColor=#1ba1e2;strokeColor=#006EAF;entryX=0.5;entryY=0;entryDx=0;entryDy=0;fontSize=14;" edge="1" parent="1" source="130" target="126">
                    <mxGeometry relative="1" as="geometry"/>
                </mxCell>
                <mxCell id="171" value="&lt;font style=&quot;font-size: 14px&quot;&gt;ass: private_a&lt;/font&gt;" style="edgeLabel;html=1;align=center;verticalAlign=middle;resizable=0;points=[];fontSize=18;" vertex="1" connectable="0" parent="157">
                    <mxGeometry x="-0.2207" y="3" relative="1" as="geometry">
                        <mxPoint y="1" as="offset"/>
                    </mxGeometry>
                </mxCell>
                <mxCell id="159" value="ass: private_b" style="edgeStyle=none;rounded=0;orthogonalLoop=1;jettySize=auto;html=1;dashed=1;startArrow=ERmandOne;startFill=0;endArrow=ERmandOne;endFill=0;entryX=0.5;entryY=1;entryDx=0;entryDy=0;fillColor=#1ba1e2;strokeColor=#006EAF;exitX=1;exitY=0.5;exitDx=0;exitDy=0;fontSize=14;" edge="1" parent="1" source="134" target="133">
                    <mxGeometry relative="1" as="geometry">
                        <mxPoint x="810" y="904" as="sourcePoint"/>
                        <mxPoint x="1082.2852173913043" y="990" as="targetPoint"/>
                    </mxGeometry>
                </mxCell>
                <mxCell id="162" style="edgeStyle=orthogonalEdgeStyle;rounded=0;orthogonalLoop=1;jettySize=auto;html=1;exitX=1;exitY=0.5;exitDx=0;exitDy=0;exitPerimeter=0;entryX=0.5;entryY=1;entryDx=0;entryDy=0;dashed=1;startArrow=classic;startFill=0;endArrow=none;endFill=0;fillColor=#60a917;strokeColor=#2D7600;fontSize=14;" edge="1" parent="1" source="28" target="130">
                    <mxGeometry relative="1" as="geometry">
                        <Array as="points">
                            <mxPoint x="786" y="703"/>
                        </Array>
                    </mxGeometry>
                </mxCell>
                <mxCell id="170" value="&lt;font style=&quot;font-size: 14px&quot;&gt;route: private_a_internet_out&amp;nbsp;&lt;/font&gt;" style="edgeLabel;html=1;align=center;verticalAlign=middle;resizable=0;points=[];fontSize=18;" vertex="1" connectable="0" parent="162">
                    <mxGeometry x="0.8599" y="-5" relative="1" as="geometry">
                        <mxPoint x="-1.48" y="-22.74" as="offset"/>
                    </mxGeometry>
                </mxCell>
                <mxCell id="163" style="edgeStyle=orthogonalEdgeStyle;rounded=0;orthogonalLoop=1;jettySize=auto;html=1;entryX=1;entryY=0.5;entryDx=0;entryDy=0;entryPerimeter=0;dashed=1;startArrow=none;startFill=0;endArrow=classic;endFill=0;fillColor=#60a917;strokeColor=#2D7600;exitX=0.5;exitY=0;exitDx=0;exitDy=0;fontSize=14;" edge="1" parent="1" source="134" target="80">
                    <mxGeometry relative="1" as="geometry">
                        <mxPoint x="768" y="1070" as="sourcePoint"/>
                        <Array as="points">
                            <mxPoint x="786" y="911"/>
                        </Array>
                    </mxGeometry>
                </mxCell>
                <mxCell id="169" value="route: private_b_internet_out" style="edgeLabel;html=1;align=center;verticalAlign=middle;resizable=0;points=[];fontSize=14;" vertex="1" connectable="0" parent="163">
                    <mxGeometry x="-0.8332" y="-5" relative="1" as="geometry">
                        <mxPoint x="-1.49" y="28.33" as="offset"/>
                    </mxGeometry>
                </mxCell>
                <mxCell id="166" value="" style="group;fontSize=14;" vertex="1" connectable="0" parent="1">
                    <mxGeometry x="347.04" y="800" width="992.96" height="200" as="geometry"/>
                </mxCell>
                <mxCell id="167" value="" style="group;fontSize=14;" vertex="1" connectable="0" parent="166">
                    <mxGeometry width="992.96" height="200" as="geometry"/>
                </mxCell>
                <mxCell id="112" value="" style="rounded=1;arcSize=10;dashed=1;strokeColor=#F59D56;fillColor=none;gradientColor=none;dashPattern=8 4;strokeWidth=2;fontSize=14;" vertex="1" parent="167">
                    <mxGeometry width="962.96" height="200" as="geometry"/>
                </mxCell>
                <mxCell id="113" value="AZ: ****b" style="text;html=1;align=center;verticalAlign=middle;resizable=0;points=[];autosize=1;fontStyle=1;fontSize=18;direction=east;rotation=270;" vertex="1" parent="167">
                    <mxGeometry x="902.96" y="85" width="90" height="30" as="geometry"/>
                </mxCell>
                <mxCell id="168" value="" style="group;fontSize=14;" vertex="1" connectable="0" parent="1">
                    <mxGeometry x="347.04" y="580" width="992.96" height="200" as="geometry"/>
                </mxCell>
                <mxCell id="97" value="" style="rounded=1;arcSize=10;dashed=1;strokeColor=#F59D56;fillColor=none;gradientColor=none;dashPattern=8 4;strokeWidth=2;fontSize=14;" vertex="1" parent="168">
                    <mxGeometry width="962.96" height="200" as="geometry"/>
                </mxCell>
                <mxCell id="103" value="AZ: ****a" style="text;html=1;align=center;verticalAlign=middle;resizable=0;points=[];autosize=1;fontStyle=1;fontSize=18;rotation=270;" vertex="1" parent="168">
                    <mxGeometry x="902.96" y="102.25999999999999" width="90" height="30" as="geometry"/>
                </mxCell>
            </root>
        </mxGraphModel>
    </diagram>
</mxfile>